<svg width="25" height="26" viewBox="0 0 25 26" fill="none" xmlns="http://www.w3.org/2000/svg">
<path d="M12.6102 21.6132C14.998 21.6132 17.288 20.6647 18.9764 18.9763C20.6648 17.2879 21.6133 14.9979 21.6133 12.6101C21.6133 10.2223 20.6648 7.93237 18.9764 6.24396C17.288 4.55556 14.998 3.60702 12.6102 3.60702C10.2224 3.60702 7.93247 4.55556 6.24406 6.24396C4.55565 7.93237 3.60711 10.2223 3.60711 12.6101C3.60711 14.9979 4.55565 17.2879 6.24406 18.9763C7.93247 20.6647 10.2224 21.6132 12.6102 21.6132ZM12.6102 23.4138C11.1914 23.4138 9.78657 23.1344 8.47581 22.5915C7.16504 22.0485 5.97404 21.2527 4.97083 20.2495C3.96761 19.2463 3.17181 18.0553 2.62887 16.7445C2.08593 15.4338 1.80649 14.0289 1.80649 12.6101C1.80649 11.1914 2.08593 9.78648 2.62887 8.47571C3.17181 7.16495 3.96761 5.97395 4.97083 4.97073C5.97404 3.96752 7.16504 3.17172 8.47581 2.62878C9.78657 2.08584 11.1914 1.8064 12.6102 1.8064C15.4755 1.8064 18.2235 2.94464 20.2496 4.97073C22.2757 6.99682 23.4139 9.74479 23.4139 12.6101C23.4139 15.4754 22.2757 18.2234 20.2496 20.2495C18.2235 22.2756 15.4755 23.4138 12.6102 23.4138Z" fill="black"/>
<path d="M6.42811 21.4046L7.98745 22.3049L6.63699 24.6439C6.5783 24.7471 6.49978 24.8377 6.40594 24.9105C6.31211 24.9832 6.20481 25.0367 6.09022 25.0678C5.97564 25.0989 5.85603 25.107 5.73829 25.0917C5.62054 25.0764 5.50699 25.038 5.40417 24.9786C5.30134 24.9192 5.21128 24.8401 5.13915 24.7458C5.06703 24.6515 5.01428 24.5438 4.98393 24.429C4.95358 24.3143 4.94624 24.1946 4.96232 24.077C4.97841 23.9593 5.0176 23.846 5.07765 23.7436L6.42811 21.4046ZM18.7912 21.4046L17.2318 22.3049L18.5823 24.6439C18.641 24.7471 18.7195 24.8377 18.8133 24.9105C18.9072 24.9832 19.0145 25.0367 19.1291 25.0678C19.2437 25.0989 19.3633 25.107 19.481 25.0917C19.5987 25.0764 19.7123 25.038 19.8151 24.9786C19.9179 24.9192 20.008 24.8401 20.0801 24.7458C20.1523 24.6515 20.205 24.5438 20.2354 24.429C20.2657 24.3143 20.2731 24.1946 20.257 24.077C20.2409 23.9593 20.2017 23.846 20.1416 23.7436L18.7912 21.4046ZM12.6096 12.6104H17.1112C17.35 12.6104 17.579 12.7052 17.7478 12.8741C17.9167 13.0429 18.0115 13.2719 18.0115 13.5107C18.0115 13.7495 17.9167 13.9784 17.7478 14.1473C17.579 14.3161 17.35 14.411 17.1112 14.411H11.7093C11.4706 14.411 11.2416 14.3161 11.0727 14.1473C10.9039 13.9784 10.809 13.7495 10.809 13.5107V7.2085C10.809 6.96973 10.9039 6.74073 11.0727 6.57189C11.2416 6.40305 11.4706 6.30819 11.7093 6.30819C11.9481 6.30819 12.1771 6.40305 12.346 6.57189C12.5148 6.74073 12.6096 6.96973 12.6096 7.2085V12.6104ZM0.750758 6.99063C0.17619 6.1248 -0.0811434 5.08687 0.0224195 4.05292C0.125983 3.01897 0.584063 2.05269 1.31894 1.31802C2.05382 0.583357 3.02023 0.125555 4.05421 0.0222903C5.08819 -0.0809744 6.12605 0.176658 6.99171 0.751476L5.67365 2.06953C5.16965 1.82882 4.60341 1.75028 4.05292 1.84473C3.50242 1.93918 2.99475 2.20197 2.5998 2.59692C2.20486 2.99187 1.94207 3.49954 1.84762 4.05003C1.75317 4.60053 1.8317 5.16676 2.07241 5.67077L0.752558 6.99063H0.750758ZM24.2507 6.99063C24.8244 6.12494 25.0812 5.08748 24.9775 4.0541C24.8738 3.02072 24.4159 2.055 23.6815 1.32061C22.9471 0.586233 21.9814 0.128375 20.948 0.0246478C19.9147 -0.0790796 18.8772 0.177705 18.0115 0.751476L19.3296 2.06953C19.8336 1.82882 20.3998 1.75028 20.9503 1.84473C21.5008 1.93918 22.0085 2.20197 22.4034 2.59692C22.7984 2.99187 23.0611 3.49954 23.1556 4.05003C23.25 4.60053 23.1715 5.16676 22.9308 5.67077L24.2507 6.99063Z" fill="black"/>
</svg>
