<svg width="32" height="32" viewBox="0 0 32 32" fill="none" xmlns="http://www.w3.org/2000/svg">
<circle cx="16" cy="16" r="14.5" fill="#62CDFA" stroke="white" stroke-width="3"/>
<path d="M10.6579 22.3152C10.6316 22.2882 10.6052 22.2613 10.6052 22.2345C10.5 22.1 10.3947 21.9656 10.2368 21.858C10.2105 21.8311 10.2105 21.8311 10.1841 21.8042C10.1578 21.7772 10.1314 21.7772 10.1052 21.7503C9.94731 21.6427 9.76318 21.562 9.60524 21.4813C9.5789 21.4813 9.5789 21.4813 9.55255 21.4544C9.52621 21.4544 9.49987 21.4544 9.49987 21.4275L9 23.1759V23.2566C9 23.3372 9.02634 23.391 9.0789 23.4449C9.10524 23.4718 9.13159 23.4987 9.1578 23.4987H9.21049H9.26317H9.34207L11 22.9877L10.9473 22.8802C10.8949 22.6917 10.7895 22.5035 10.6579 22.3152Z" fill="white"/>
<path d="M22.7113 10.5635L21.45 9.28635C21.3287 9.16354 21.1831 9.08991 21.0375 9.04073C20.892 8.99156 20.7223 8.99156 20.5767 9.01615C20.3584 9.04073 20.1643 9.13896 20.0188 9.31093L19 10.3426L21.6683 13.1425L22.7112 12.0864C22.7355 12.0618 22.7355 12.0373 22.7598 12.0373C23.0994 11.5705 23.0751 10.9565 22.7112 10.5635L22.7113 10.5635Z" fill="white"/>
<path d="M12.4259 20.4126L12.0399 20.014L19.3181 12.4953L17.9948 11.0713L10.4962 18.8178C10.4686 18.8463 10.441 18.9032 10.441 18.9317L10.3583 19.1595L10 20.4126H10.0552C10.9925 20.6974 11.7093 21.4664 11.985 22.4061V22.4632L13.4461 22.0075H13.4737C13.4737 22.0075 13.5013 22.0075 13.5013 21.9789C13.5289 21.9789 13.5289 21.9504 13.5565 21.9504L21 14.2609L19.6768 12.8369L12.4259 20.4126Z" fill="white"/>
</svg>
