<svg width="22" height="22" viewBox="0 0 22 22" fill="none" xmlns="http://www.w3.org/2000/svg">
<path d="M3.32762 12.8236C4.10396 9.09555 7.34938 6.44663 11 6.44663C14.6496 6.44663 17.895 9.09555 18.6725 12.8236C18.7033 12.9716 18.7916 13.1012 18.9179 13.184C19.0443 13.2669 19.1984 13.2961 19.3464 13.2653C19.4943 13.2345 19.6239 13.1462 19.7068 13.0198C19.7896 12.8934 19.8188 12.7393 19.788 12.5914C18.9035 8.35108 15.2039 5.30829 11 5.30829C6.79614 5.30829 3.09653 8.35108 2.21204 12.5914C2.18125 12.7393 2.21048 12.8934 2.29331 13.0198C2.37614 13.1462 2.50578 13.2345 2.65372 13.2653C2.80165 13.2961 2.95576 13.2669 3.08214 13.184C3.20852 13.1012 3.29682 12.9716 3.32762 12.8236V12.8236ZM10.9887 8.72331C12.0453 8.72331 13.0587 9.14308 13.8059 9.89026C14.5531 10.6374 14.9729 11.6508 14.9729 12.7075C14.9729 13.7642 14.5531 14.7776 13.8059 15.5248C13.0587 16.2719 12.0453 16.6917 10.9887 16.6917C9.93198 16.6917 8.91859 16.2719 8.1714 15.5248C7.42422 14.7776 7.00446 13.7642 7.00446 12.7075C7.00446 11.6508 7.42422 10.6374 8.1714 9.89026C8.91859 9.14308 9.93198 8.72331 10.9887 8.72331V8.72331Z" fill="#6A707C"/>
</svg>
