<svg width="105" height="100" viewBox="0 0 105 100" fill="none" xmlns="http://www.w3.org/2000/svg">
<rect x="1" y="0.5" width="99" height="97.0392" rx="48.5196" fill="#EAF8FE" stroke="#5DCCFC"/>
<path d="M57.9373 24.2763C57.9373 20.2537 54.6155 17 50.5155 17C46.5123 17 43.1905 20.2567 43.1905 24.2763C43.1905 28.296 46.5123 31.5527 50.5155 31.5527C54.6186 31.5527 57.9373 28.296 57.9373 24.2763ZM62.0405 36.1483L66.9248 51.1789C67.4123 52.4228 66.6311 53.7647 65.3623 54.1477C64.0936 54.6256 62.7248 53.8597 62.2373 52.6158L59.5998 44.6685C59.2092 43.4246 58.0373 42.3707 56.9623 42.3707C55.9842 42.3707 55.4967 43.4246 55.8873 44.6685L61.553 61.807C61.9436 63.0509 61.1623 64.1048 59.7936 64.1048H57.353V83.5411C57.353 84.883 56.1811 85.9338 54.9123 85.9338C53.5436 85.9338 52.3717 84.8799 52.3717 83.5411V64.1048H48.6592V83.5411C48.6592 84.883 47.5842 85.9338 46.2186 85.9338C44.853 85.9338 43.778 84.8799 43.778 83.5411V64.1048H41.3373C39.9686 64.1048 39.1873 63.0509 39.578 61.807L45.2436 44.6685C45.6342 43.4246 45.1467 42.3707 44.0717 42.3707C43.0936 42.3707 41.9217 43.4246 41.4342 44.6685L38.7967 52.6158C38.4061 53.8597 37.0373 54.6256 35.7686 54.1477C34.3998 53.7647 33.7186 52.4228 34.1092 51.1789L39.0905 36.1483C39.4811 34.9044 40.9467 33.8505 42.3123 33.8505H58.8155C60.1842 33.8505 61.553 34.9044 62.0405 36.1483Z" fill="#FF9DC6"/>
</svg>
