<svg width="100" height="100" viewBox="0 0 100 100" fill="none" xmlns="http://www.w3.org/2000/svg">
<rect x="0.5" y="0.5" width="99" height="99" rx="49.5" fill="#EAF8FE" stroke="#5DCCFC"/>
<path d="M49.4932 59.22C45.9132 59.22 42.3399 57.86 39.6132 55.1333C34.1665 49.6867 34.1665 40.8267 39.6132 35.38C45.0598 29.9334 53.9198 29.9334 59.3665 35.38C64.8131 40.8267 64.8131 49.6867 59.3665 55.1333C56.6531 57.86 53.0732 59.22 49.4931 59.22H49.4932ZM49.4932 35.2333C46.9265 35.2333 44.3532 36.2133 42.3999 38.1666C38.4866 42.08 38.4866 48.4399 42.3999 52.3533C46.3132 56.2666 52.6732 56.2666 56.5865 52.3533C60.4999 48.44 60.4999 42.08 56.5865 38.1666C54.6332 36.2066 52.0666 35.2333 49.4932 35.2333H49.4932ZM38.8532 67.96L26.7932 55.9C25.9599 55.0666 25.9599 53.7066 26.7932 52.8733C27.6265 52.04 28.9865 52.04 29.8199 52.8733L41.8799 64.9333C42.7133 65.7666 42.7133 67.1266 41.8799 67.96C41.0533 68.7933 39.6865 68.7933 38.8532 67.96Z" fill="#5AA7F9"/>
<path d="M23.7999 70.9533C22.9733 70.1266 22.9733 68.7666 23.7999 67.9333L38.8799 52.8533C39.7066 52.0266 41.0666 52.0266 41.8999 52.8533C42.7266 53.6799 42.7266 55.0399 41.8999 55.8733L26.82 70.9533C25.9933 71.7799 24.6333 71.7799 23.7999 70.9533Z" fill="#5AA7F9"/>
<path d="M82.1333 70.92C81.3067 71.7467 79.9467 71.7467 79.1133 70.92L64.0399 55.84C63.2133 55.0133 63.2133 53.6533 64.0399 52.82C64.8666 51.9933 66.2266 51.9933 67.0599 52.82L82.1333 67.8999C82.96 68.7333 82.96 70.0867 82.1333 70.92Z" fill="#FF9DC6"/>
<path d="M82.7532 56.56V69.42C82.7532 70.5933 81.7932 71.5533 80.6199 71.5533C79.4466 71.5533 78.4866 70.5933 78.4866 69.42V56.56C78.4866 55.3866 79.4466 54.4266 80.6199 54.4266C81.7932 54.4266 82.7532 55.3866 82.7532 56.56Z" fill="#FF9DC6"/>
<path d="M67.7732 71.54H80.6332C81.8065 71.54 82.7665 70.58 82.7665 69.4066C82.7665 68.2333 81.8065 67.2733 80.6332 67.2733H67.7732C66.5999 67.2733 65.6399 68.2333 65.6399 69.4066C65.6399 70.58 66.5999 71.54 67.7732 71.54Z" fill="#FF9DC6"/>
<path d="M66.3733 35.4067C63.7333 32.7667 60.2266 31.3134 56.4933 31.3134C52.76 31.3134 49.2533 32.7667 46.6133 35.4067C41.3066 40.7134 41.1733 49.26 46.2066 54.7334C48.3933 55.4867 50.7866 55.4667 52.9599 54.6667C51.6599 54.18 50.4466 53.4134 49.3999 52.3734C45.4866 48.46 45.4866 42.1001 49.3999 38.1867C51.2933 36.2934 53.8133 35.2467 56.4932 35.2467C59.1732 35.2467 61.6932 36.2934 63.5865 38.1867C65.4799 40.08 66.5265 42.6 66.5265 45.28C66.5265 47.96 65.4799 50.48 63.5865 52.3733C62.4599 53.5 61.1265 54.3 59.7132 54.78C59.5999 54.9 59.4865 55.02 59.3732 55.1333C57.5332 56.9733 55.3065 58.1933 52.9465 58.7866C54.1065 59.0866 55.2999 59.24 56.4932 59.24C60.0732 59.24 63.6465 57.88 66.3732 55.1533C69.0132 52.5133 70.4665 49.0066 70.4665 45.2733C70.4665 41.5399 69.0132 38.0466 66.3732 35.4066L66.3733 35.4067Z" fill="#FF9DC6"/>
</svg>
