<svg width="124" height="82" viewBox="0 0 124 82" fill="none" xmlns="http://www.w3.org/2000/svg">
<path d="M17 81V3.5C17 2.11929 15.8807 1 14.5 1C13.1193 1 12 2.11929 12 3.5V81M17 81H12M17 81V5.5C17 4.11929 15.8807 3 14.5 3C13.1193 3 12 4.11929 12 5.5V81M32 81V4C32 2.34315 30.6569 1 29 1C27.3431 1 26 2.34315 26 4V81M32 81H26M32 81V25C32 23.3431 30.6569 22 29 22C27.3431 22 26 23.3431 26 25V81M46 81V3.5C46 2.11929 44.8807 1 43.5 1C42.1193 1 41 2.11929 41 3.5V81M46 81H41M46 81V44.5C46 43.1193 44.8807 42 43.5 42C42.1193 42 41 43.1193 41 44.5V81M60 81V4C60 2.34315 58.6569 1 57 1C55.3431 1 54 2.34315 54 4V81M60 81H54M60 81V33C60 31.3431 58.6569 30 57 30C55.3431 30 54 31.3431 54 33V81M75 81V4C75 2.34315 73.6569 1 72 1C70.3431 1 69 2.34315 69 4V81M75 81H69M75 81V48C75 46.3431 73.6569 45 72 45C70.3431 45 69 46.3431 69 48V81M0 81H124M83 3.5C83 2.11929 84.1193 1 85.5 1C86.8807 1 88 2.11929 88 3.5V81H83V3.5ZM97 4C97 2.34315 98.3431 1 100 1C101.657 1 103 2.34315 103 4V81H97V4ZM112 3.5C112 2.11929 113.119 1 114.5 1C115.881 1 117 2.11929 117 3.5V81H112V3.5Z" stroke="#3089DB" stroke-opacity="0.33"/>
</svg>
