<svg width="100" height="100" viewBox="0 0 100 100" fill="none" xmlns="http://www.w3.org/2000/svg">
<g clip-path="url(#clip0_484_1616)">
<path d="M50.0007 98.2146C76.6285 98.2146 98.2146 76.6285 98.2146 50.0007C98.2146 23.3729 76.6285 1.78687 50.0007 1.78687C23.3729 1.78687 1.78687 23.3729 1.78687 50.0007C1.78687 76.6285 23.3729 98.2146 50.0007 98.2146Z" fill="#F7B239"/>
<path d="M24.6696 75.331C7.32542 57.9868 5.95881 30.7165 20.5682 11.8071C18.9498 13.0573 17.3928 14.4239 15.9082 15.9083C-2.92009 34.7366 -2.92009 65.2634 15.9082 84.0917C34.7365 102.92 65.2633 102.92 84.0916 84.0917C85.5758 82.6075 86.9426 81.0501 88.193 79.4319C69.2838 94.0415 42.0133 92.6747 24.6696 75.331Z" fill="#E09B2D"/>
<path d="M24.9827 53.4617H73.5897C73.5897 56.1898 73.1393 58.8132 72.3102 61.2626H26.2622C25.4329 58.8132 24.9827 56.1898 24.9827 53.4617Z" fill="white"/>
<path d="M26.2621 61.2627H72.3099C70.6754 66.09 67.566 70.2336 63.5177 73.1619C61.8166 70.2955 58.6904 68.375 55.114 68.375C52.9291 68.375 50.9133 69.0922 49.2859 70.3051C47.6586 69.0924 45.6404 68.375 43.4554 68.375C39.8814 68.375 36.7529 70.2955 35.0541 73.1619C31.006 70.2334 27.8967 66.09 26.2621 61.2627Z" fill="#A81004"/>
<path d="M55.114 68.375C58.6904 68.375 61.8166 70.2955 63.5177 73.1619C59.5172 76.0592 54.5994 77.7652 49.2859 77.7652C43.9724 77.7652 39.0547 76.0592 35.0541 73.1619C36.7529 70.2955 39.8814 68.375 43.4554 68.375C45.6404 68.375 47.6586 69.0922 49.2859 70.3051C50.9135 69.0922 52.9291 68.375 55.114 68.375Z" fill="#F95428"/>
<path d="M50.0002 0C22.4299 0 0 22.4299 0 49.9998C0 77.5701 22.4299 100 50.0002 100C77.5701 100 100 77.5701 100 49.9998C100 22.4299 77.5701 0 50.0002 0ZM50.0002 96.426C24.4008 96.426 3.57402 75.5994 3.57402 49.9998C3.57402 24.4006 24.4006 3.57402 50.0002 3.57402C75.5994 3.57402 96.426 24.4006 96.426 49.9998C96.426 75.5992 75.5992 96.426 50.0002 96.426Z" fill="black"/>
<path d="M28.6573 46.6175C32.303 46.6175 35.269 43.6515 35.269 40.0058C35.269 36.3601 32.303 33.394 28.6573 33.394C25.0115 33.394 22.0455 36.3601 22.0455 40.0058C22.0455 43.6515 25.0114 46.6175 28.6573 46.6175Z" fill="black"/>
<path d="M71.3432 33.3943C67.6975 33.3943 64.7314 36.3603 64.7314 40.006C64.7314 43.6517 67.6975 46.6177 71.3432 46.6177C74.9889 46.6177 77.9549 43.6517 77.9549 40.006C77.9549 36.3603 74.9887 33.3943 71.3432 33.3943Z" fill="black"/>
<path d="M73.5895 51.6746H24.9827C23.9958 51.6746 23.1956 52.4748 23.1956 53.4617C23.1956 56.3253 23.6579 59.1427 24.5694 61.8359C26.3143 66.9886 29.5778 71.406 34.0061 74.6093C38.4709 77.8431 43.7549 79.5525 49.286 79.5525C54.8172 79.5525 60.101 77.8431 64.5653 74.6101C68.9944 71.406 72.2581 66.9888 74.0026 61.8363C74.9141 59.1433 75.3764 56.3257 75.3764 53.4623C75.3766 52.4748 74.5764 51.6746 73.5895 51.6746ZM71.7325 55.2486C71.62 56.6818 71.3704 58.0953 70.9885 59.4755H27.5833C27.2016 58.0953 26.9518 56.682 26.8393 55.2486H71.7325ZM37.6106 72.7171C39.1045 71.1136 41.2237 70.1619 43.4553 70.1619C45.1877 70.1619 46.8346 70.7068 48.218 71.7378C48.8516 72.2099 49.7202 72.2101 50.3536 71.7378C51.7368 70.7068 53.3829 70.1619 55.1137 70.1619C57.3444 70.1619 59.4641 71.1132 60.9598 72.7175C57.4497 74.8556 53.4493 75.9781 49.2856 75.9781C45.1219 75.9781 41.1215 74.8556 37.6106 72.7171ZM63.8713 70.6154C61.6961 68.0958 58.4936 66.5878 55.1139 66.5878C53.0391 66.5878 51.0477 67.1292 49.2858 68.1632C47.5239 67.1289 45.5317 66.5878 43.4553 66.5878C40.0741 66.5878 36.8715 68.0962 34.6995 70.6144C32.234 68.5226 30.2698 65.9552 28.9055 63.0496H69.6661C68.3018 65.9558 66.3374 68.5234 63.8713 70.6154Z" fill="black"/>
<path d="M29.3906 40.8918C30.3776 40.8918 31.1777 40.0917 31.1777 39.1047C31.1777 38.1177 30.3776 37.3176 29.3906 37.3176C28.4036 37.3176 27.6035 38.1177 27.6035 39.1047C27.6035 40.0917 28.4036 40.8918 29.3906 40.8918Z" fill="white"/>
<path d="M72.0408 40.8918C73.0278 40.8918 73.8279 40.0917 73.8279 39.1047C73.8279 38.1177 73.0278 37.3176 72.0408 37.3176C71.0538 37.3176 70.2537 38.1177 70.2537 39.1047C70.2537 40.0917 71.0538 40.8918 72.0408 40.8918Z" fill="white"/>
</g>
<defs>
<clipPath id="clip0_484_1616">
<rect width="100" height="100" fill="white"/>
</clipPath>
</defs>
</svg>
