<svg width="100" height="100" viewBox="0 0 100 100" fill="none" xmlns="http://www.w3.org/2000/svg">
<rect x="0.5" y="0.5" width="99" height="99" rx="49.5" fill="#EAF8FE" stroke="#5DCCFC"/>
<path d="M44.2001 80.8C44.2001 82.5262 45.2753 83.6 47.0001 83.6C48.7291 83.6 49.8001 82.5262 49.8001 80.8V54.2H52.6001V80.8C52.6001 82.5234 53.6739 83.6 55.4001 83.6C57.1263 83.6 58.2001 82.5262 58.2001 80.8V36H59.6001V52.5396C59.6001 55.8926 63.8085 55.8926 63.8001 52.5396V35.5254C63.8001 31.821 61.1317 29 56.8001 29H45.6001C41.6521 29 38.6001 31.4066 38.6001 35.4218V52.8C38.6001 55.6 42.8001 55.6 42.8001 52.8V36H44.2001V80.8Z" fill="#5AA7F9"/>
<path d="M51.025 27.25C54.2144 27.25 56.8 24.6644 56.8 21.475C56.8 18.2855 54.2144 15.7 51.025 15.7C47.8356 15.7 45.25 18.2855 45.25 21.475C45.25 24.6644 47.8356 27.25 51.025 27.25Z" fill="#5AA7F9"/>
</svg>
