<svg width="22" height="22" viewBox="0 0 22 22" fill="none" xmlns="http://www.w3.org/2000/svg">
<path d="M3.12753 12.5153C3.90388 8.78726 7.1493 6.13834 10.8 6.13834C14.4495 6.13834 17.6949 8.78726 18.4724 12.5153C18.5032 12.6633 18.5915 12.7929 18.7179 12.8757C18.8442 12.9586 18.9984 12.9878 19.1463 12.957C19.2942 12.9262 19.4239 12.8379 19.5067 12.7115C19.5895 12.5852 19.6188 12.431 19.588 12.2831C18.7035 8.04279 15.0039 5 10.8 5C6.59606 5 2.89645 8.04279 2.01196 12.2831C1.98116 12.431 2.0104 12.5852 2.09323 12.7115C2.17606 12.8379 2.3057 12.9262 2.45364 12.957C2.60157 12.9878 2.75568 12.9586 2.88206 12.8757C3.00844 12.7929 3.09674 12.6633 3.12753 12.5153ZM10.7886 8.41503C11.8453 8.41503 12.8586 8.83479 13.6058 9.58197C14.353 10.3292 14.7728 11.3425 14.7728 12.3992C14.7728 13.4559 14.353 14.4693 13.6058 15.2165C12.8586 15.9637 11.8453 16.3834 10.7886 16.3834C9.7319 16.3834 8.71851 15.9637 7.97132 15.2165C7.22414 14.4693 6.80438 13.4559 6.80438 12.3992C6.80438 11.3425 7.22414 10.3292 7.97132 9.58197C8.71851 8.83479 9.7319 8.41503 10.7886 8.41503Z" fill="#6A707C"/>
<rect x="19.731" y="5" width="0.939165" height="20.4685" rx="0.469582" transform="rotate(54.8257 19.731 5)" fill="#6A707C"/>
</svg>
