<svg width="20" height="20" viewBox="0 0 20 20" fill="none" xmlns="http://www.w3.org/2000/svg">
<rect width="20" height="20" fill="white"/>
<path fill-rule="evenodd" clip-rule="evenodd" d="M4.58195 6.32943C4.23098 3.52165 6.4203 1.04163 9.24993 1.04163H10.669C13.5017 1.04163 15.6933 3.52427 15.3419 6.33503L15.2881 6.7658C15.1839 7.59923 15.4869 8.4319 16.1024 9.00346L16.139 9.03743C17.4834 10.286 17.7443 12.3166 16.7592 13.8644C16.1153 14.876 15.0359 15.5195 13.852 15.6131L13.6926 15.8863C12.8486 17.3332 11.5336 18.125 10.1528 18.125C8.77192 18.125 7.45691 17.3332 6.61292 15.8863L6.45602 15.6173C5.0466 15.5296 3.78405 14.6902 3.16226 13.4083L3.07613 13.2307C2.37059 11.7762 2.70067 10.0312 3.88874 8.93491C4.46208 8.40584 4.74485 7.6326 4.64808 6.85847L4.58195 6.32943ZM7.93339 15.625C8.56618 16.4897 9.38516 16.875 10.1528 16.875C10.9204 16.875 11.7394 16.4897 12.3722 15.625H7.93339Z" fill="#5DCCFC"/>
</svg>
